<?xml version="1.0" encoding="utf-8"?>
<!-- Generator: Adobe Illustrator 27.0.0, SVG Export Plug-In . SVG Version: 6.00 Build 0)  -->
<svg version="1.1" id="Layer_1" xmlns="http://www.w3.org/2000/svg" xmlns:xlink="http://www.w3.org/1999/xlink" x="0px" y="0px"
	 viewBox="0 0 200 92.04" style="enable-background:new 0 0 200 92.04;" xml:space="preserve">
<style type="text/css">
	.st0{fill:#30261D;}
</style>
<g>
	<path class="st0" d="M55.78,61.53c-0.47-0.19-0.95-0.29-1.34-0.29c-1.37,0-2.15,1.22-2.14,2.47c0,1.19,0.64,2.48,2.23,2.48
		c0.42,0,0.95-0.13,1.32-0.37l0.09,1.08c-0.51,0.23-1.1,0.27-1.54,0.27c-2.02,0-3.41-1.57-3.41-3.46c0-2.01,1.36-3.46,3.41-3.46
		c0.49,0,1.13,0.11,1.49,0.26L55.78,61.53z"/>
	<path class="st0" d="M60.32,60.25c2.03,0.01,3.4,1.45,3.4,3.47c0,1.89-1.39,3.45-3.4,3.45c-2.03,0-3.41-1.56-3.41-3.46
		C56.9,61.71,58.27,60.25,60.32,60.25 M60.32,66.2c1.44,0,2.08-1.3,2.08-2.47c0-1.27-0.77-2.48-2.08-2.48
		c-1.33,0-2.09,1.22-2.09,2.47C58.22,64.9,58.87,66.2,60.32,66.2"/>
	<path class="st0" d="M66.16,61.41l-1.57-0.02v-0.98h1.57V59.8c0-1.61,0.42-2.66,2.25-2.66c0.31,0,0.57,0.05,0.82,0.08l-0.05,0.98
		c-0.15-0.06-0.38-0.07-0.6-0.07c-1.06,0-1.19,0.67-1.19,1.57v0.71l1.78,0.01v0.98H67.4l0.01,5.62h-1.24V61.41z"/>
	<path class="st0" d="M71.04,61.41h-1.58v-0.98h1.58v-0.61c0-1.62,0.42-2.67,2.24-2.67c0.31,0,0.58,0.05,0.82,0.08l-0.04,0.98
		c-0.16-0.04-0.39-0.07-0.6-0.07c-1.06,0-1.2,0.66-1.2,1.56v0.72h1.77v0.98h-1.76v5.62h-1.24V61.41z"/>
	<path class="st0" d="M80.47,66.76c-0.47,0.16-1.01,0.43-2.11,0.43c-2.38-0.01-3.47-1.43-3.47-3.58c0-1.96,1.25-3.35,3.14-3.35
		c2.23,0,2.96,1.61,2.96,3.73h-4.77c0,1.31,1.03,2.2,2.2,2.2c0.82,0,1.76-0.41,2.06-0.65V66.76z M79.67,63.09
		c0-1.01-0.59-1.83-1.66-1.83c-1.21,0-1.72,0.98-1.8,1.83H79.67z"/>
	<path class="st0" d="M87.77,66.77c-0.48,0.17-1.01,0.42-2.12,0.42c-2.37,0-3.47-1.43-3.47-3.58c0-1.95,1.25-3.35,3.13-3.35
		c2.23,0,2.95,1.61,2.95,3.74L83.5,64c0,1.3,1.03,2.2,2.21,2.21c0.81,0,1.76-0.42,2.06-0.67V66.77z M86.96,63.1
		c0-1.02-0.6-1.85-1.67-1.85c-1.2,0-1.7,0.98-1.79,1.83L86.96,63.1z"/>
	<path class="st0" d="M101.02,62.15c-0.12,1.47-0.53,2.3-1.05,3.1l1.6,1.78h-1.64l-0.75-0.88c-0.65,0.73-1.46,1.04-2.62,1.04
		c-1.81,0-2.95-1.02-2.95-2.53c0-1.37,0.81-2.15,2.04-2.65c-0.48-0.58-0.94-1.2-0.94-2.06c0-1.45,1.08-2.13,2.39-2.13
		c1.2,0,2.27,0.62,2.27,2.06c0,1.15-1.03,1.93-2,2.35l1.86,2.11c0.36-0.56,0.5-1.16,0.57-2.2H101.02z M96.8,66.21
		c0.85,0,1.4-0.54,1.69-0.87l-2.19-2.55c-0.7,0.46-1.29,0.88-1.29,1.78C95,65.58,95.86,66.21,96.8,66.21 M96.76,61.52
		c0.55-0.27,1.37-0.82,1.37-1.59c0-0.83-0.46-1.12-1.09-1.12c-0.6,0-1.1,0.39-1.09,1.17C95.95,60.58,96.37,61.08,96.76,61.52"/>
	<path class="st0" d="M106.68,57.32h1.23v4.02h0.02c0.38-0.61,1.05-1.06,2.21-1.06c1.95,0,2.89,1.57,2.89,3.35
		c0,1.82-0.84,3.57-2.87,3.57c-1.18,0-1.95-0.59-2.28-1.09h-0.03l0.01,0.93h-1.19V57.32z M109.89,61.26c-1.34,0-1.98,1.25-1.98,2.49
		c0,1.1,0.58,2.46,1.96,2.46c1.33,0,1.88-1.46,1.85-2.5C111.75,62.52,111.22,61.26,109.89,61.26"/>
	<path class="st0" d="M115,60.9c0.63-0.36,1.36-0.62,2.22-0.62c1.91,0,2.68,0.93,2.68,2.74v2.73c0,0.75,0.04,1.1,0.05,1.29h-1.16
		v-0.85h-0.01c-0.3,0.4-0.95,1.01-2.07,1.01c-1.44,0-2.45-0.62-2.45-2.06c0-1.67,1.84-2.18,3.1-2.18c0.49,0,0.83,0,1.31,0.03
		c0-1.14-0.41-1.72-1.65-1.72c-0.69,0-1.43,0.27-1.94,0.68L115,60.9z M118.66,63.9c-0.26,0-0.53-0.04-0.79-0.04
		c-0.66,0-2.33,0.11-2.33,1.28c0,0.7,0.69,1.08,1.27,1.08c1.21,0,1.86-0.76,1.85-1.73V63.9z"/>
	<polygon class="st0" points="121.99,57.32 123.21,57.32 123.23,63.12 125.91,60.43 127.59,60.43 124.48,63.36 127.98,67.06 
		126.21,67.06 123.23,63.65 123.23,67.06 121.99,67.06 	"/>
	<path class="st0" d="M134.41,66.78c-0.48,0.17-1.02,0.44-2.12,0.44c-2.37,0-3.46-1.43-3.46-3.58c0-1.97,1.24-3.35,3.14-3.35
		c2.22,0,2.95,1.6,2.95,3.73h-4.79c0,1.32,1.05,2.2,2.21,2.2c0.82,0,1.76-0.41,2.07-0.66V66.78z M133.6,63.12
		c0-1.02-0.6-1.85-1.67-1.85c-1.2,0-1.69,0.98-1.8,1.84L133.6,63.12z"/>
	<path class="st0" d="M136.57,60.44h1.16v1.02h0.01c0.34-0.69,1.04-1.18,1.75-1.18c0.37,0,0.55,0.04,0.82,0.09v1.09
		c-0.23-0.08-0.48-0.12-0.69-0.12c-1.1,0-1.83,1.04-1.83,2.7l0.02,3.01h-1.24V60.44z"/>
	<path class="st0" d="M142.08,68.79c0.17,0.06,0.37,0.11,0.58,0.11c1.1,0,1.47-1.5,1.47-1.63c0-0.14-0.17-0.48-0.24-0.69l-2.27-6.18
		h1.35l1.8,5.47h0.03l1.82-5.47h1.25l-2.46,6.75c-0.47,1.28-0.95,2.74-2.58,2.74c-0.39,0-0.61-0.05-0.83-0.09L142.08,68.79z"/>
	<path class="st0" d="M33.42,25.81c0.59-1.36,0.62-2.11,2.31-2.11c1.37,0,1.33,0.5,1.84,1.65l8.62,20.1
		c0.25,0.63,0.67,1.57,1.04,2.11c0.51,0.7,0.88,0.95,1.72,0.99c0.71,0.05,1.5-0.08,1.5,0.87c0,0.82-0.83,0.86-1.42,0.86
		c-1.75,0-3.43-0.16-5.09-0.16c-2.1,0-4.11,0.16-6.11,0.16c-0.59,0-1.34-0.08-1.34-0.86c0-1.41,2.92-0.25,2.92-1.73
		c0-0.54-0.25-1.15-0.42-1.57l-1.34-3.35c-0.53-1.46-0.41-1.37-1.92-1.37h-5.47c-1.46,0-1.34-0.09-1.84,1.24
		c-0.38,1.12-0.92,2.56-0.92,3.77c0,2.93,4.15,1.16,4.15,3.02c0,0.74-0.79,0.86-1.38,0.86c-1.3,0-2.64-0.08-3.93-0.08
		c-1.3,0-2.64,0.08-3.94,0.08c-0.62,0-1.3-0.13-1.3-0.87c0-0.71,0.63-0.78,1.17-0.87c1.22-0.21,1.63-0.29,2.26-1.4
		c0.54-1,1.3-3.15,1.76-4.3l2.3-5.7L33.42,25.81z M30.29,37.88c-0.08,0.25-0.38,0.91-0.38,1.2c0,0.57,0.88,0.41,1.26,0.41h3.64
		c0.29,0,1.38,0.16,1.38-0.33c0-0.21-0.34-0.91-0.38-1.03l-2.76-7.07L30.29,37.88z"/>
	<path class="st0" d="M60.11,33.91c0.71,0,2.46-3.13,5.9-3.13c1.75,0,3.56,1.28,3.56,3.13c0,1.86-1.59,3.36-3.48,3.36
		c-2.67,0-2.97-2.4-4.22-2.4c-2.09,0-1.76,4.3-1.76,5.58l0.01,4.09c0,0.95-0.14,2.44,0.16,3.31c0.21,0.62,1.51,0.59,2.26,0.71
		c0.47,0.09,1,0.34,1,0.86c0,0.71-0.75,0.79-1.29,0.79c-1.76,0-3.51-0.08-5.27-0.08c-1.76,0-3.44,0.08-5.19,0.08
		c-0.55,0-1.26-0.09-1.26-0.79c0-0.54,0.5-0.78,1-0.87c0.59-0.08,1.89-0.12,2.09-0.7c0.3-0.86,0.29-2.36,0.29-3.31v-6.07
		c0-1.74,0.13-2.69-1.84-2.94c-0.59-0.04-1.26,0-1.26-0.7c0-0.74,1.34-0.87,1.8-0.98c1.8-0.47,4.1-1.45,5.39-2.82
		c0.26-0.29,0.64-0.74,1.51-0.74c0.67,0,0.59,1.07,0.59,1.5V33.91z"/>
	<path class="st0" d="M78.6,41.73c0,1.54-0.16,5.59,2.05,5.59c1.38,0,2.31-1.2,2.93-1.2c0.29,0,0.5,0.25,0.5,0.58
		c0,0.54-0.83,1.37-1.17,1.7c-1.42,1.32-3.51,2.1-5.44,2.1c-1.38,0-3.01-0.61-3.85-1.73c-0.96-1.29-1.22-3.07-1.22-4.59v-8.65
		c0-0.33-0.04-1.41-0.13-1.74c-0.08-0.41-0.59-0.53-1-0.53c-0.54,0-1.89,0.2-1.89-0.47c0-0.61,0.88-0.95,1.34-1.12
		c2.26-0.9,4.35-2.39,5.55-4.5c0.3-0.54,0.72-1.37,1.42-1.37c0.89,0,0.72,0.95,0.72,1.53v2.86c0,1.16,0.24,1.11,1.34,1.11h2.17
		c0.89,0,1.51-0.2,1.51,0.84c0,1.15-0.3,1.12-1.43,1.12h-2.06c-1.37,0-1.37-0.04-1.37,1.61V41.73z"/>
	<path class="st0" d="M96.13,32.32c-1.27,0-2.6,0.94-3.35,1.81c-1.21,1.37-1.79,3.34-1.79,5.13c0,4.22,2.97,8.44,7.65,8.44
		c3.05,0,3.97-1.53,4.76-1.53c0.3,0,0.5,0.29,0.5,0.5c0,0.95-1.21,1.69-1.87,2.15c-1.93,1.16-4.18,1.7-6.4,1.7
		c-6.15,0-11.16-3.77-11.16-9.93c0-6.32,6.89-9.8,12.71-9.8c1.63,0,3.68,0.33,5.11,1.12c0.87,0.42,1.2,0.83,1.2,1.74
		c0,0.99-0.37,3.77-1.75,3.77c-1.34,0-1.96-1.41-2.52-2.31C98.46,33.85,97.84,32.32,96.13,32.32"/>
	<path class="st0" d="M123.68,44.44c0,0.61-0.2,2.56,0.97,2.56c0.46,0,0.67-0.16,1.05-0.41c0.25-0.13,0.67-0.51,1.01-0.51
		c0.32,0,0.54,0.3,0.54,0.58c0,0.59-0.67,1.24-1.09,1.58c-1.3,1.08-2.85,1.9-4.61,1.9c-1.61,0-2.41-0.58-3.09-1.99
		c-0.08-0.12-0.33-0.96-0.71-0.96c-0.49,0-3.08,3.32-7.23,3.32c-2.48,0-4.36-1.62-4.36-4.06c0-1.78,0.8-2.98,2.25-4.01
		c1.13-0.82,3.4-1.82,4.81-2.23c1.47-0.41,2.97-1.16,3.97-1.9c0.29-0.25,0.46-0.29,0.46-0.41v-1.37c0-1.41,0.29-4.3-1.88-4.3
		c-1.51,0-2.46,1.35-3.01,2.6c-0.41,1-0.66,1.58-1.8,2.03c-0.87,0.45-2.43,0.91-3.42,0.91c-0.63,0-1.3-0.25-1.3-0.95
		c0-1.33,1.84-3.18,2.85-3.84c2.25-1.57,5.1-2.2,7.82-2.2c1.71,0,3.88,0.29,5.35,1.16c1.34,0.83,1.42,2.11,1.42,3.48V44.44z
		 M117.66,41.7c0-0.12,0.09-1.74-0.46-1.74c-0.42,0-2.59,1.36-3.01,1.62c-1.22,0.75-2.22,1.65-2.22,3.14c0,1.28,0.84,2.4,2.26,2.4
		c1.09,0,2.47-0.66,3.02-1.57c0.24-0.46,0.4-1.16,0.4-1.86V41.7z"/>
	<path class="st0" d="M137.41,46.76c0,0.12,0,1.53,2.3,1.82c0.55,0.08,1.34,0.2,1.34,0.95c0,0.62-0.42,0.7-0.97,0.7
		c-1.99,0-3.94-0.08-5.86-0.08c-2,0-4.01,0.08-6.01,0.08c-0.59,0-1.01-0.08-1.01-0.71c0-0.74,0.63-0.87,1.13-0.95
		c2.55-0.29,2.55-1.71,2.55-1.82l0-12.91c0-0.37,0.16-0.54-1.42-0.54c-0.55,0-1.64,0.24-1.64-0.57c0-1.05,1.13-1.24,1.92-1.33
		c1.13-0.13,1.13-0.79,1.26-1.78c0.63-5.01,4.86-7.94,9.79-7.94c1.25,0.01,4.85,0.37,4.85,2.28c0,0.95-1.25,3.59-2.43,3.59
		c-1.71,0-2.47-4.26-3.88-4.26c-2.02,0-1.92,4.88-1.92,6.08c0,1.87-0.21,1.94,1.3,1.94h3.05c0.88,0,0.76,0.37,0.8,1.16
		c0.04,1-0.54,0.83-1.43,0.83h-2.3c-1.45,0-1.42-0.08-1.42,0.29V46.76z"/>
	<path class="st0" d="M152.68,46.76c0,0.12,0,1.53,2.3,1.82c0.54,0.07,1.34,0.19,1.34,0.95c0,0.62-0.41,0.7-0.95,0.7
		c-2.01,0-3.94-0.09-5.86-0.09c-2.01,0-4.03,0.08-6.03,0.08c-0.58,0-1-0.08-1-0.7c0-0.75,0.63-0.88,1.11-0.95
		c2.56-0.29,2.56-1.7,2.56-1.82v-12.9c0-0.38,0.17-0.55-1.42-0.55c-0.56,0-1.62,0.25-1.62-0.57c-0.02-1.04,1.11-1.24,1.91-1.33
		c1.14-0.12,1.14-0.78,1.26-1.78c0.62-5,4.85-7.94,9.79-7.94c1.25,0,4.84,0.37,4.84,2.28c0,0.94-1.26,3.59-2.43,3.59
		c-1.72,0-2.46-4.26-3.89-4.26c-2.01,0-1.93,4.87-1.93,6.07c0,1.87-0.21,1.94,1.3,1.94h3.06c0.88,0,0.76,0.38,0.8,1.16
		c0.04,1-0.55,0.83-1.43,0.83h-2.29c-1.47-0.01-1.43-0.09-1.43,0.28L152.68,46.76z"/>
	<path class="st0" d="M166.26,38.66c-1.03,0-1.45-0.13-1.45,1.04c0,4.01,2.71,7.97,7.23,7.97c3.18,0,4.51-2.14,5.52-2.14
		c0.33,0,0.63,0.24,0.63,0.61c0,0.83-1.56,1.95-2.18,2.32c-2.05,1.37-4.43,2.06-6.94,2.06c-5.9,0-10.96-4.25-10.96-10.13
		c0-5.92,5.65-9.6,11.38-9.6c2.17,0,4.56,0.63,6.32,1.95c1.41,1.04,2.59,2.58,2.59,4.35c0,1.54-0.93,1.58-2.35,1.57H166.26z
		 M171,36.88c1.12-0.25,1.54-1.03,1.54-2.07c0-1.53-1.13-2.61-2.72-2.61c-1.26,0-2.6,0.58-3.44,1.49c-0.54,0.66-1.16,1.9-1.16,2.77
		c0,0.74,0.73,0.66,1.36,0.66C167.73,37.13,169.95,37.13,171,36.88"/>
	<path class="st0" d="M165.93,24.9l7.29,2.1c0.76,0.24,1.61,0.16,2.32-0.29c0.65-0.42,1.07-1.29,0.46-2.23
		c-0.39-0.61-0.98-0.83-2.06-0.82l-6.33,0.16L165.93,24.9"/>
</g>
</svg>
